<svg width="28" height="28" viewBox="0 0 28 28" fill="none" xmlns="http://www.w3.org/2000/svg">
<path fill-rule="evenodd" clip-rule="evenodd" d="M4.95831 9.33333C4.95831 6.11167 7.56999 3.5 10.7916 3.5H19.8333C23.055 3.5 25.6666 6.11167 25.6666 9.33333V18.6667C25.6666 21.8883 23.055 24.5 19.8333 24.5H3.49998C3.07124 24.5 2.67704 24.2648 2.47336 23.8876C2.26969 23.5103 2.28936 23.0517 2.52459 22.6932L4.38448 19.8591C4.75886 19.2886 4.95831 18.6212 4.95831 17.9388V9.33333ZM10.7916 5.83333C8.85865 5.83333 7.29165 7.40033 7.29165 9.33333V17.9388C7.29165 19.0761 6.95922 20.1885 6.33526 21.1393L5.66106 22.1667H19.8333C21.7663 22.1667 23.3333 20.5997 23.3333 18.6667V9.33333C23.3333 7.40034 21.7663 5.83333 19.8333 5.83333H10.7916ZM15.1666 9.91667C15.811 9.91667 16.3333 10.439 16.3333 11.0833V12.8333H18.0833C18.7276 12.8333 19.25 13.3557 19.25 14C19.25 14.6443 18.7276 15.1667 18.0833 15.1667H16.3333V16.9167C16.3333 17.561 15.811 18.0833 15.1666 18.0833C14.5223 18.0833 14 17.561 14 16.9167V15.1667H12.25C11.6056 15.1667 11.0833 14.6443 11.0833 14C11.0833 13.3557 11.6056 12.8333 12.25 12.8333H14V11.0833C14 10.439 14.5223 9.91667 15.1666 9.91667Z" fill="#3369F3"/>
</svg>
