<svg width="25" height="26" viewBox="0 0 25 26" fill="none" xmlns="http://www.w3.org/2000/svg">
<path d="M25 13C25 19.9036 19.4036 25.5 12.5 25.5C5.59644 25.5 0 19.9036 0 13C0 6.09644 5.59644 0.5 12.5 0.5C19.4036 0.5 25 6.09644 25 13Z" fill="white"/>
<path d="M14 7C14 7.82843 13.3284 8.5 12.5 8.5C11.6716 8.5 11 7.82843 11 7C11 6.17157 11.6716 5.5 12.5 5.5C13.3284 5.5 14 6.17157 14 7Z" fill="#1E1E1E"/>
<path d="M14 13C14 13.8284 13.3284 14.5 12.5 14.5C11.6716 14.5 11 13.8284 11 13C11 12.1716 11.6716 11.5 12.5 11.5C13.3284 11.5 14 12.1716 14 13Z" fill="#1E1E1E"/>
<path d="M14 19C14 19.8284 13.3284 20.5 12.5 20.5C11.6716 20.5 11 19.8284 11 19C11 18.1716 11.6716 17.5 12.5 17.5C13.3284 17.5 14 18.1716 14 19Z" fill="#1E1E1E"/>
</svg>
